<svg id="undraw_business_deal_re_up4u" xmlns="http://www.w3.org/2000/svg" xmlns:xlink="http://www.w3.org/1999/xlink" width="1500" height="1500" viewBox="0 0 1500 1500">
  <defs>
    <clipPath id="clip-path">
      <rect id="Rectangle_2417" data-name="Rectangle 2417" width="1128" height="915" transform="translate(186 292)" fill="#fff"/>
    </clipPath>
  </defs>
  <g id="undraw_business_deal_re_up4u-2" data-name="undraw_business_deal_re_up4u">
    <rect id="Rectangle_2416" data-name="Rectangle 2416" width="1500" height="1500" fill="#fff" opacity="0"/>
    <g id="Group_529" data-name="Group 529" clip-path="url(#clip-path)">
      <path id="Path_20058" data-name="Path 20058" d="M1086.51,458.671c-5.86,64.571-22.55,132.658-48.73,198.353-32.38,81.24-76.613,152.8-127.924,206.932l-2.847-2.484C958.071,807.6,1002.1,736.357,1034.34,655.453c29.14-73.112,46.47-149.2,50.15-219.992l3.63.609Q1087.55,447.285,1086.51,458.671Z" fill="#f2f2f2"/>
      <path id="Path_20059" data-name="Path 20059" d="M1109.85,833.685c-72.07,114.673-159.506,196.605-246.2,230.705l-1.753-3.21c86.1-33.87,173.016-115.383,244.756-229.532Z" fill="#f2f2f2"/>
      <path id="Path_20060" data-name="Path 20060" d="M1084.76,539.062c-5.86,64.571-22.55,132.658-48.73,198.352-32.38,81.24-76.612,152.8-127.923,206.932l-2.847-2.483c51.062-53.875,95.09-125.116,127.34-206.02,29.13-73.111,46.46-149.2,50.14-219.991l3.64.609Q1085.795,527.676,1084.76,539.062Z" fill="#f2f2f2"/>
      <path id="Path_20061" data-name="Path 20061" d="M275.693,704.838H228.407a6.693,6.693,0,0,1-5.256-2.532,6.558,6.558,0,0,1-1.283-5.569,128.624,128.624,0,0,0-.825-60.278,6.707,6.707,0,0,1,2.6-7.046c24.315-17.49,43.463-16.982,56.914,1.511a6.705,6.705,0,0,1,1.177,2.84,210.508,210.508,0,0,1,.59,65.317,6.679,6.679,0,0,1-6.632,5.757Z" fill="#e6e6e6"/>
      <path id="Path_20062" data-name="Path 20062" d="M261.033,657.475H244.767a3.392,3.392,0,0,1,0-6.784h16.266a3.392,3.392,0,0,1,0,6.784Z" fill="#fff"/>
      <path id="Path_20063" data-name="Path 20063" d="M261.033,669.374H244.767a3.392,3.392,0,1,1,0-6.784h16.266a3.392,3.392,0,0,1,0,6.784Z" fill="#fff"/>
      <path id="Path_20064" data-name="Path 20064" d="M261.033,681.268H244.767a3.392,3.392,0,0,1,0-6.784h16.266a3.392,3.392,0,0,1,0,6.784Z" fill="#fff"/>
      <path id="Path_20065" data-name="Path 20065" d="M1135.07,915.994h-47.29a6.637,6.637,0,0,1-2.91-.663,6.716,6.716,0,0,1-2.34-1.868,6.546,6.546,0,0,1-1.28-5.57,128.625,128.625,0,0,0-.83-60.278,6.7,6.7,0,0,1,2.6-7.046c24.32-17.49,43.47-16.982,56.92,1.511a6.693,6.693,0,0,1,1.17,2.84,210.11,210.11,0,0,1,.59,65.317,6.663,6.663,0,0,1-6.63,5.757Z" fill="#e6e6e6"/>
      <path id="Path_20066" data-name="Path 20066" d="M1120.41,868.632h-16.27a3.392,3.392,0,0,1,0-6.784h16.27a3.392,3.392,0,1,1,0,6.784Z" fill="#fff"/>
      <path id="Path_20067" data-name="Path 20067" d="M1120.41,880.53h-16.27a3.392,3.392,0,0,1,0-6.784h16.27a3.392,3.392,0,1,1,0,6.784Z" fill="#fff"/>
      <path id="Path_20068" data-name="Path 20068" d="M1120.41,892.425h-16.27a3.392,3.392,0,0,1,0-6.784h16.27a3.392,3.392,0,1,1,0,6.784Z" fill="#fff"/>
      <path id="Path_20069" data-name="Path 20069" d="M1314,1205.23a1.788,1.788,0,0,1-.13.68,1.874,1.874,0,0,1-.96.96,1.788,1.788,0,0,1-.68.13H187.769a1.77,1.77,0,0,1,0-3.54H1312.23a2,2,0,0,1,.68.13,1.874,1.874,0,0,1,.96.96,1.787,1.787,0,0,1,.13.68Z" fill="#ccc"/>
      <path id="Path_20070" data-name="Path 20070" d="M482.625,1096.88l-2.949-41.02a132.69,132.69,0,0,0-62.3-13.97c30.378,23.48,27.945,70.42,48.983,102.54a79.85,79.85,0,0,0,59.514,35.28l25.282,14.54a133.8,133.8,0,0,0-31.141-107.58,129.245,129.245,0,0,0-24.336-21.4C490.156,1081.14,482.625,1096.88,482.625,1096.88Z" fill="#f2f2f2"/>
      <path id="Path_20071" data-name="Path 20071" d="M1017.38,1102.83l2.94-41.02a132.717,132.717,0,0,1,62.3-13.97c-30.38,23.48-27.94,70.42-48.98,102.54a79.862,79.862,0,0,1-59.516,35.28l-25.282,14.54a133.791,133.791,0,0,1,31.14-107.58,128.878,128.878,0,0,1,24.338-21.4C1009.84,1087.09,1017.38,1102.83,1017.38,1102.83Z" fill="#f2f2f2"/>
      <path id="Path_20072" data-name="Path 20072" d="M736.619,639.878a28.254,28.254,0,1,0-28.25-28.254A28.252,28.252,0,0,0,736.619,639.878Z" fill="#ff639d"/>
      <path id="Path_20073" data-name="Path 20073" d="M751.121,599.846a2.286,2.286,0,0,0-3.154,0,93.633,93.633,0,0,0-16.031,16.377l-3.426-6.631c-1.319-2.551-5.169-.3-3.852,2.251l5.012,9.7a2.257,2.257,0,0,0,3.852,0A90.318,90.318,0,0,1,751.121,603a2.246,2.246,0,0,0,0-3.155Z" fill="#fff"/>
      <path id="Path_20074" data-name="Path 20074" d="M610.217,691.737l-42.6-66.909,49.329-26.422,12.947,51.049,91.224,49.3a19.728,19.728,0,1,1-11.225,26.838Z" fill="#a0616a"/>
      <path id="Path_20075" data-name="Path 20075" d="M536.494,544.578c-13.385,19.655,34.181,91.1,34.181,91.1,2.318-4.995,24.469,51.1,28.179,47.789,10.545-9.418,27.051-35.653,36.226-36.822,5.247-.669-12.169-37.887-12.169-37.887s-7.96-21.978-18.761-50.051a50.408,50.408,0,0,0-36.614-32.024S549.879,524.923,536.494,544.578Z" fill="#3f3d56"/>
      <path id="Path_20076" data-name="Path 20076" d="M537.148,1184.94h20.231L567,1106.89H537.144Z" fill="#a0616a"/>
      <path id="Path_20077" data-name="Path 20077" d="M531.986,1178.33h5.7l22.232-9.04,11.916,9.04h0a25.4,25.4,0,0,1,25.391,25.39v.83H531.987Z" fill="#2f2e41"/>
      <path id="Path_20078" data-name="Path 20078" d="M631.139,1184.94H651.37l9.625-78.05H631.136Z" fill="#a0616a"/>
      <path id="Path_20079" data-name="Path 20079" d="M625.978,1178.33h5.694l22.233-9.04,11.915,9.04h0a25.4,25.4,0,0,1,25.391,25.39v.83H625.979Z" fill="#2f2e41"/>
      <path id="Path_20080" data-name="Path 20080" d="M639.9,758.258,508.3,761.548c-24.993,13.577-25.372,42.961-17.183,77.849,0,0-2.765,20.736,2.764,26.266s8.294,5.529,5.529,15.206,11.841,25.482,10.067,27.257-5.92,11.451-5.92,11.451l13.822,78.8s9.676,136.856,12.44,139.626,5.529,0,2.764,6.91-5.528,4.15-2.764,6.91a100.821,100.821,0,0,1,6.911,8.3H570.15s2.52-13.83,2.52-15.21,2.764-9.68,2.764-11.06-2.443-3.83-2.443-3.83a45.405,45.405,0,0,1-1.7-8.61c0-2.77-8.294-109.21-8.294-109.21l16.587-138.243,40.084,135.473s0,118.89,2.765,121.66,2.764,1.38,1.382,6.91-6.911,4.15-2.764,8.29,5.529-2.76,4.146,4.15l-1.382,6.91,41.467.6s5.529-11.66,2.764-15.8-2.6-3.02.774-9.81,4.755-8.17,3.373-9.55-1.382-8.73-1.382-8.73L663.9,981.785s-1.383-139.623-1.383-143.77a13.785,13.785,0,0,1,1.149-6.22v-5.629l-5.3-19.947Z" fill="#2f2e41"/>
      <path id="Path_20081" data-name="Path 20081" d="M560.846,484.59A40.893,40.893,0,1,0,519.959,443.7,40.891,40.891,0,0,0,560.846,484.59Z" fill="#a0616a"/>
      <path id="Path_20082" data-name="Path 20082" d="M581.289,511.617c8.809,5.238,14.078,14.861,17.1,24.653a233.642,233.642,0,0,1,10.038,55.818l3.2,56.717,39.568,120.766C616.9,798.591,488,776.167,488,776.167s-3.957-1.319,0-5.277,7.809-.451,3.852-4.409-1.229.452.09-3.506,0-1.319-1.319-2.638,10.21-13.191,10.21-13.191l-10.551-69.321L477.094,538c15.827-19.786,47.658-31.451,47.658-31.451l8.224-14.806,41.123,3.29Z" fill="#3f3d56"/>
      <path id="Path_20083" data-name="Path 20083" d="M594.55,421.971a18.951,18.951,0,0,1,6.732,9.457,133.012,133.012,0,0,0,.087-18.556c-.481-4.343-3.538-5.319-7.078-6.451-3.2-1.023-6.812-2.178-7.784-6.394-12.853-12.505-35.226-11.874-50.538-7.512-8.426,2.4-13.274,5.484-13.708,7.291l-.089.372-.343.171c-6.494,3.247-7.758,13.5-7.675,21.534.158,15.132,5.382,32.318,8.325,33.714.156.074.2.045.263-.011,4.431-3.542,9.837.269,12.213,2.34a42.526,42.526,0,0,1,38.076-36.074,66.741,66.741,0,0,0,9.178-1.539,19.31,19.31,0,0,1,4.688-.615,13.336,13.336,0,0,1,7.653,2.273Z" fill="#2f2e41"/>
      <path id="Path_20084" data-name="Path 20084" d="M848.371,790.839l78.651-79.88,20.722-63.887L914.4,633.582c-16.519,16.665-33.524,67.681-33.524,67.681l-53.682,72.059c-.429.159-.856.328-1.277.527a15.891,15.891,0,1,0,22.456,16.99Z" fill="#ffb8b8"/>
      <path id="Path_20085" data-name="Path 20085" d="M905.3,640.892l42.171,12.2.157-.031c15.5-3.01,27.762-28.774,35.319-49.857a29.142,29.142,0,0,0-15.782-36.518h0a29.2,29.2,0,0,0-30.473,4.648l-21.026,18.107Z" fill="#ff639d"/>
      <path id="Path_20086" data-name="Path 20086" d="M869.221,1182.57h-22.68l-10.788-87.49h33.471Z" fill="#ffb8b8"/>
      <path id="Path_20087" data-name="Path 20087" d="M875.007,1175.16h-6.384L843.7,1165.02l-13.358,10.14h0a28.469,28.469,0,0,0-28.463,28.47v.92h73.127Z" fill="#2f2e41"/>
      <path id="Path_20088" data-name="Path 20088" d="M969.853,1182.57h-22.68l-10.788-87.49h33.472Z" fill="#ffb8b8"/>
      <path id="Path_20089" data-name="Path 20089" d="M975.639,1175.16h-6.384l-24.922-10.14-13.358,10.14h0a28.469,28.469,0,0,0-28.463,28.47v.92h73.127Z" fill="#2f2e41"/>
      <path id="Path_20090" data-name="Path 20090" d="M1004.44,805.719s2.64,31.783-3.98,62.242-6.617,116.24-6.617,116.24L979.277,1151.36l-43.7-3.97L923.665,867.961l-42.372,94.024,3.973,13.243-5.291,3.311s3.967,25.821,1.318,25.821-9.268,3.98-9.268,3.98l5.3,136.4-45.02-1.33L816.412,951.391l17.214-109.916,1.324-21.189,5.958.245,3.034-8.852,5.573-15.23Z" fill="#2f2e41"/>
      <path id="Path_20091" data-name="Path 20091" d="M1006.72,812.394l.24-.331c12.6-17.647-6.35-60.054-9.211-66.2l12.041-3.908-2.71-23.053-1.29-10.277,9.21-9.2.02-.229,5.3-46.351,7.7-30.785a67.617,67.617,0,0,0-19.18-65.5l-17.8-16.785-21.633-32.014H934.521l-11.962,22.6a50.854,50.854,0,0,0-39.342,51.921l2.711,59.265-10.613,73.791-.006,13.354-11.943,13.275L865.974,755l-9.09,3.9-4.014,18.731c-1.661,2.192-12.624,16.812-12.624,20.809,0,.6.443,1.18,1.393,1.824,7.472,5.06,48.767,15.375,67.044,8.061,19.469-7.786,96.857,3.894,97.637,4.013Z" fill="#ff639d"/>
      <path id="Path_20092" data-name="Path 20092" d="M947.457,497.42a46.208,46.208,0,1,0-46.2-46.208A46.205,46.205,0,0,0,947.457,497.42Z" fill="#ffb8b8"/>
      <path id="Path_20093" data-name="Path 20093" d="M943.031,498.168a125.624,125.624,0,0,0,21.33-2.045c6.968-1.606,22.343-13.5,26.533-20.52,3.113-5.219,4.982-13.292,6-19.144a56.181,56.181,0,0,0-10.971-44.33A17.751,17.751,0,0,0,978.6,406.2c-.259-.093-.525-.175-.794-.245a21.887,21.887,0,0,1-11.062-6.457,18.02,18.02,0,0,0-1.859-1.816,26.956,26.956,0,0,0-11.394-5.359c-6.733-1.617-16.365.409-28.626,6.029-6.16,2.823-13,2.035-18.267,1.034a1.7,1.7,0,0,0-.88.084,1.721,1.721,0,0,0-.721.51,12.1,12.1,0,0,1-8.142,3.493c-1.871.131-3.769,2.775-6.057,6.219-.52.782-1.125,1.694-1.565,2.251l-.088-1.046-1.029,1.2a14.695,14.695,0,0,0,7.249,23.763,28.651,28.651,0,0,0,5.786.77c1.181.076,2.4.154,3.578.327A22.152,22.152,0,0,1,921.557,450.9a5.791,5.791,0,0,0,8.814,2.586,9.572,9.572,0,0,1,8.679-1.813,6.36,6.36,0,0,1,2.89,3.113,8.276,8.276,0,0,0,3.236,3.584c4.81,2.326,5.417,13.161,3.946,22.245-1.419,8.756-4.505,15.143-7.505,15.532-2.309.3-2.57.471-2.727.885l-.14.371.269.336a9.445,9.445,0,0,0,4.012.431Z" fill="#2f2e41"/>
      <path id="Path_20094" data-name="Path 20094" d="M904.7,645.836l-22.208-28.3c-22.622,6.23-62.76,42.012-62.76,42.012L737.3,695.324a15.883,15.883,0,1,0,9.648,25.736L854.93,690.93Z" fill="#ffb8b8"/>
      <path id="Path_20095" data-name="Path 20095" d="M899.376,652.3l35.041-39.067,1.946-27.683a29.206,29.206,0,0,0-14.492-27.209h0a29.132,29.132,0,0,0-38.7,9.176c-12.382,18.663-25.7,43.9-18.848,58.123l.069.144Z" fill="#ff639d"/>
      <path id="Path_20096" data-name="Path 20096" d="M576.406,799.146,485.332,752.5c-6.478-3.318-8.623-12.119-4.783-19.619l59.382-115.963c3.841-7.5,12.236-10.9,18.714-7.584l91.073,46.65C656.2,659.3,658.342,668.1,654.5,675.6L595.12,791.562C591.279,799.062,582.884,802.464,576.406,799.146Z" fill="#e6e6e6"/>
      <path id="Path_20097" data-name="Path 20097" d="M560.846,777.7l-61.877-31.694c-6.067-3.108-8.077-11.351-4.48-18.375l49.333-96.34c3.6-7.024,11.459-10.21,17.527-7.1l74.734,38.28c6.067,3.108,8.077,11.35,4.48,18.374l-26.8,52.337C597.741,764.47,587.871,791.545,560.846,777.7Z" fill="#fff"/>
      <path id="Path_20098" data-name="Path 20098" d="M591.438,725.09l-54.806-28.073a3.428,3.428,0,0,1,3.092-6.038l54.806,28.073a3.428,3.428,0,0,1-3.092,6.038Z" fill="#ff639d"/>
      <path id="Path_20099" data-name="Path 20099" d="M543.031,715.353l-12.507-6.406a3.428,3.428,0,0,1,3.092-6.038l12.507,6.406a3.428,3.428,0,0,1-3.092,6.038Z" fill="#ff639d"/>
      <path id="Path_20100" data-name="Path 20100" d="M559.074,738.63l-34.659-17.753a3.429,3.429,0,0,1,3.092-6.039l34.659,17.754a3.428,3.428,0,0,1-3.092,6.038Z" fill="#ff639d"/>
      <path id="Path_20101" data-name="Path 20101" d="M613.127,682.738l-54.806-28.072a3.428,3.428,0,0,1,3.091-6.038L616.218,676.7a3.428,3.428,0,0,1-3.091,6.038Z" fill="#ff639d"/>
      <path id="Path_20102" data-name="Path 20102" d="M564.719,673l-12.507-6.407a3.428,3.428,0,0,1,3.092-6.038l12.507,6.407A3.428,3.428,0,0,1,564.719,673Z" fill="#ff639d"/>
      <path id="Path_20103" data-name="Path 20103" d="M580.762,696.278,546.1,678.525a3.428,3.428,0,0,1,3.092-6.038l34.659,17.753a3.428,3.428,0,0,1-3.092,6.038Z" fill="#ff639d"/>
      <path id="Path_20104" data-name="Path 20104" d="M500.937,698.188l-20.575-76.607,54.982-10.409-2.957,52.582,72.241,74.395a19.727,19.727,0,1,1-18.757,22.236Z" fill="#a0616a"/>
      <path id="Path_20105" data-name="Path 20105" d="M474.736,535.692c-18.663,14.735,5.291,97.158,5.291,97.158,3.708-4.071,8.018,56.09,12.551,54.041,12.883-5.822,36.5-25.9,45.6-24.262,5.206.936-.249-39.793-.249-39.793s-1-23.353-2.888-53.374a50.415,50.415,0,0,0-25.327-41.532S493.4,520.957,474.736,535.692Z" fill="#3f3d56"/>
      <path id="Path_20106" data-name="Path 20106" d="M785.265,868.224l-49.7-23.471a7.775,7.775,0,0,1-4.267-5.27,7.62,7.62,0,0,1,1.415-6.49,149.569,149.569,0,0,0,28.863-62.832,7.726,7.726,0,0,1,7.572-6.231c25.347.086,44.29,9.342,56.3,27.508a7.831,7.831,0,0,1,1.023,6.507,244.667,244.667,0,0,1-31.384,67.52,7.759,7.759,0,0,1-9.827,2.759Z" fill="#e6e6e6"/>
      <path id="Path_20107" data-name="Path 20107" d="M799.886,835.306l-38-17.947a3.942,3.942,0,0,1,3.366-7.13l38,17.947a3.942,3.942,0,1,1-3.366,7.13Z" fill="#fff"/>
      <path id="Path_20108" data-name="Path 20108" d="M805.789,822.8l-38-17.947a3.942,3.942,0,0,1,3.366-7.13l38,17.947a3.943,3.943,0,0,1-3.367,7.13Z" fill="#fff"/>
      <path id="Path_20109" data-name="Path 20109" d="M755.012,430.315l-3.537.387c-15.772-61.985-46.342-104.928-88.408-124.186-53.478-24.481-119.605-8.042-186.2,46.291C409.933,407.416,350.679,493.676,310.021,595.7l-3.432-1.571c40.836-102.469,100.4-189.146,167.7-244.059,67.646-55.191,135.123-71.751,190-46.629C707.565,323.251,738.935,367.124,755.012,430.315Z" fill="#f2f2f2"/>
      <path id="Path_20110" data-name="Path 20110" d="M364.763,511.041c-9.251,19.49-18.049,39.681-26.152,60.013-46.627,117-70.256,236.492-68.325,345.558l-3.644-.389c-1.933-109.472,21.763-229.373,68.537-346.74,8.126-20.389,16.949-40.637,26.226-60.182Z" fill="#f2f2f2"/>
      <path id="Path_20111" data-name="Path 20111" d="M363.014,591.436c-9.251,19.489-18.049,39.681-26.152,60.013-46.627,117-70.256,236.491-68.325,345.558l-3.644-.389c-1.933-109.472,21.763-229.374,68.537-346.74,8.126-20.389,16.949-40.638,26.226-60.183Z" fill="#f2f2f2"/>
      <path id="Path_20112" data-name="Path 20112" d="M265.068,620.673c4.028-6.056,1.644-14.725-5.326-19.362s-15.885-3.488-19.914,2.568-1.644,14.724,5.326,19.362S261.039,626.729,265.068,620.673Z" fill="#ccc"/>
      <path id="Path_20113" data-name="Path 20113" d="M1122.87,839.368c4.03-6.055,1.65-14.724-5.32-19.362s-15.89-3.488-19.92,2.568-1.64,14.725,5.33,19.362S1118.84,845.424,1122.87,839.368Z" fill="#ccc"/>
      <path id="Path_25492" data-name="Path 25492" d="M5,0c2.761,0,5,2.686,5,6s-2.239,6-5,6S0,9.314,0,6,2.239,0,5,0Z" transform="translate(911 458)" fill="#2f2e41"/>
      <path id="Path_25509" data-name="Path 25509" d="M5,0c2.761,0,5,2.686,5,6s-2.239,6-5,6S0,9.314,0,6,2.239,0,5,0Z" transform="translate(582 444)" fill="#2f2e41"/>
    </g>
  </g>
  <circle id="Ellipse_46" data-name="Ellipse 46" cx="36.614" cy="36.614" r="36.614" transform="translate(1154.767 608.853) rotate(43)" fill="#3f3d56"/>
  <path id="Path_408" data-name="Path 408" d="M682.135,330.6a3.8,3.8,0,0,1-2.284-.759l-.04-.03-8.6-6.589a3.823,3.823,0,1,1,4.65-6.07l5.573,4.275L694.6,304.251a3.822,3.822,0,0,1,5.358-.707h0l-.082.111.084-.109a3.827,3.827,0,0,1,.707,5.359l-15.492,20.2a3.823,3.823,0,0,1-3.041,1.492Z" transform="translate(870.982 -38.661) rotate(43)" fill="#fff"/>
  <path id="Path_2108" data-name="Path 2108" d="M432.43,269.667H175.644V133H432.43Z" transform="matrix(0.921, -0.391, 0.391, 0.921, 42.512, 206.135)" fill="#fff"/>
  <rect id="Rectangle_514" data-name="Rectangle 514" width="255.561" height="32.481" transform="matrix(0.921, -0.391, 0.391, 0.921, 257.365, 260.419)" fill="#e6e6e6"/>
  <path id="Path_2109" data-name="Path 2109" d="M432.43,269.667H175.644V133H432.43Zm-254.948-1.839h253.11V134.839H177.482Z" transform="matrix(0.921, -0.391, 0.391, 0.921, 42.512, 206.135)" fill="#3f3d56"/>
  <path id="Path_155" data-name="Path 155" d="M324.2,210.9c-1.214,0-2.2,1.58-2.194,3.522s.983,3.5,2.194,3.508H427.846c1.214,0,2.2-1.58,2.194-3.522s-.983-3.5-2.194-3.508Z" transform="matrix(0.921, -0.391, 0.391, 0.921, 5.599, 202.89)" fill="#3f3d56"/>
  <path id="Path_156" data-name="Path 156" d="M324.2,237.132c-1.214,0-2.2,1.581-2.194,3.522s.983,3.5,2.194,3.508H427.846c1.214,0,2.2-1.58,2.194-3.521s-.983-3.5-2.194-3.508Z" transform="matrix(0.921, -0.391, 0.391, 0.921, 3.309, 197.494)" fill="#3f3d56"/>
  <path id="Path_157" data-name="Path 157" d="M324.2,263.042c-1.214,0-2.2,1.581-2.194,3.521s.983,3.5,2.194,3.508h44.6c1.214,0,2.2-1.581,2.194-3.522s-.983-3.5-2.194-3.508Z" transform="matrix(0.921, -0.391, 0.391, 0.921, 1.046, 192.164)" fill="#3f3d56"/>
  <circle id="Ellipse_379" data-name="Ellipse 379" cx="28.124" cy="28.124" r="28.124" transform="matrix(0.921, -0.391, 0.391, 0.921, 310.297, 297.637)" fill="#3f3d56"/>
</svg>
