<svg id="undraw_at_work_re_qotl" xmlns="http://www.w3.org/2000/svg" xmlns:xlink="http://www.w3.org/1999/xlink" width="1500" height="1500" viewBox="0 0 1500 1500">
  <defs>
    <clipPath id="clip-path">
      <rect id="Rectangle_2476" data-name="Rectangle 2476" width="1121" height="962" transform="translate(189 269)" fill="#fff"/>
    </clipPath>
  </defs>
  <g id="undraw_at_work_re_qotl-2" data-name="undraw_at_work_re_qotl">
    <rect id="Rectangle_2475" data-name="Rectangle 2475" width="1500" height="1500" fill="#fff" opacity="0"/>
    <g id="Group_581" data-name="Group 581" clip-path="url(#clip-path)">
      <path id="Path_21989" data-name="Path 21989" d="M1292.62,1026.03l-515.787,174.4a25.6,25.6,0,0,1-32.4-16.04L505.511,477.163a25.609,25.609,0,0,1,16.033-32.418l515.786-174.4a25.58,25.58,0,0,1,32.4,16.04l238.92,707.226a25.592,25.592,0,0,1-16.03,32.417Z" fill="#e6e6e6"/>
      <path id="Path_21990" data-name="Path 21990" d="M1279.46,1012.97,779.378,1182.06a17.29,17.29,0,0,1-21.894-10.84L523.875,479.712a17.3,17.3,0,0,1,10.833-21.9L1034.79,288.721a17.292,17.292,0,0,1,21.89,10.838l233.61,691.51a17.3,17.3,0,0,1-10.83,21.9Z" fill="#fff"/>
      <path id="Path_21991" data-name="Path 21991" d="M1153.74,1228.93H609.294a25.6,25.6,0,0,1-25.565-25.58V456.825a25.6,25.6,0,0,1,25.565-25.575H1153.74a25.6,25.6,0,0,1,25.57,25.575V1203.35a25.607,25.607,0,0,1-25.57,25.58Z" fill="#ccc"/>
      <path id="Path_21992" data-name="Path 21992" d="M1145.45,1212.34H617.585a17.3,17.3,0,0,1-17.273-17.28V465.121a17.295,17.295,0,0,1,17.273-17.281H1145.45a17.288,17.288,0,0,1,17.27,17.281V1195.06a17.293,17.293,0,0,1-17.27,17.28Z" fill="#fff"/>
      <path id="Path_21993" data-name="Path 21993" d="M1033,654.9H684.356a11.079,11.079,0,0,1,0-22.158H1033a11.079,11.079,0,0,1,0,22.158Z" fill="#ccc"/>
      <path id="Path_21994" data-name="Path 21994" d="M1078.68,692.291H684.356a11.079,11.079,0,0,1,0-22.158H1078.68a11.079,11.079,0,0,1,0,22.158Z" fill="#ccc"/>
      <path id="Path_21995" data-name="Path 21995" d="M1033,822.471H684.356a11.08,11.08,0,0,1,0-22.159H1033a11.079,11.079,0,0,1,0,22.159Z" fill="#ff639d"/>
      <path id="Path_21996" data-name="Path 21996" d="M1078.68,859.861H684.356a11.079,11.079,0,0,1,0-22.158H1078.68a11.079,11.079,0,0,1,0,22.158Z" fill="#ccc"/>
      <path id="Path_21997" data-name="Path 21997" d="M1033,990.045H684.356a11.079,11.079,0,0,1,0-22.158H1033a11.079,11.079,0,0,1,0,22.158Z" fill="#ccc"/>
      <path id="Path_21998" data-name="Path 21998" d="M1078.68,1027.44H684.356a11.08,11.08,0,1,1,0-22.16H1078.68a11.08,11.08,0,0,1,0,22.16Z" fill="#ccc"/>
      <path id="Path_21999" data-name="Path 21999" d="M471.577,781.376H391.43a6.226,6.226,0,0,1-6.218-6.221V740.594a46.292,46.292,0,1,1,92.583,0v34.561a6.226,6.226,0,0,1-6.218,6.221Z" fill="#2f2e41"/>
      <path id="Path_22000" data-name="Path 22000" d="M595.277,961.746a13.9,13.9,0,0,1-12.809-17.035L540.7,918.357l23.377-10.587,36.078,26.649a13.977,13.977,0,0,1-4.879,27.327Z" fill="#ffb8b8"/>
      <path id="Path_22001" data-name="Path 22001" d="M566.456,940.244a7.451,7.451,0,0,1-3.9-1.546l-114.9-89.1-14.815-26.359a14.632,14.632,0,0,1,1.284-16.3h0a14.665,14.665,0,0,1,21.458-1.669L583.655,909.188a7.514,7.514,0,0,1,1.921,10.566L573.3,937.1a7.448,7.448,0,0,1-5.027,3.092,7.593,7.593,0,0,1-1.814.053Z" fill="#2f2e41"/>
      <path id="Path_22002" data-name="Path 22002" d="M295.67,1195.35l15.7,6.35,31.983-57.57-23.178-9.38Z" fill="#ffb8b8"/>
      <path id="Path_22003" data-name="Path 22003" d="M293.739,1188.6l30.927,12.52h0a21.268,21.268,0,0,1,11.733,27.69l-.259.65-50.637-20.5Z" fill="#2f2e41"/>
      <path id="Path_22004" data-name="Path 22004" d="M478.661,1213.02H495.6l8.06-65.37h-25Z" fill="#ffb8b8"/>
      <path id="Path_22005" data-name="Path 22005" d="M474.341,1207.49H507.7a21.266,21.266,0,0,1,21.262,21.27v.69H474.342Z" fill="#2f2e41"/>
      <path id="Path_22006" data-name="Path 22006" d="M492.619,1176.07c-6.728,0-13.327-2.75-16.968-4.57a6.952,6.952,0,0,1-2.407-1.98,6.879,6.879,0,0,1-1.283-2.85L436.252,986.559l-92.639,173.4a6.913,6.913,0,0,1-3.911,3.3c-19.952,6.67-30.833-3.82-34.587-8.64a6.8,6.8,0,0,1-.771-7.04l42.9-93.25,25.942-88.58,26.222-64.824.573.061,87.683,9.234,10.663,58.664L509.07,1164.22a6.818,6.818,0,0,1-1.255,4.37,17.9,17.9,0,0,1-15.2,7.48Z" fill="#2f2e41"/>
      <path id="Path_22007" data-name="Path 22007" d="M442.928,780.85A33.955,33.955,0,1,0,408.989,746.9,33.947,33.947,0,0,0,442.928,780.85Z" fill="#ffb8b8"/>
      <path id="Path_22008" data-name="Path 22008" d="M454.732,937.187c-14.776,0-33.059-8.652-54.529-25.836l-.366-.294,15.18-119.809.709-.026c21.713-.785,39.383,4.73,54.013,16.9l.125.131,11.862,15.257.006.279,1.672,93.715-.042.132a29.822,29.822,0,0,1-19.051,18.19,33.079,33.079,0,0,1-9.579,1.359Z" fill="#ff639d"/>
      <path id="Path_22009" data-name="Path 22009" d="M476.586,993.2a7.546,7.546,0,0,1-7.274-5.6l-20.839-78.925-13.2,71.9a7.5,7.5,0,0,1-8.43,6.09l-57.485-8.026a7.519,7.519,0,0,1-6.079-9.862l29.078-85.742-6.509-50.235a37.607,37.607,0,0,1,35.722-42.42l.582-.023,27.65,66.713,4.4-17.6,6.882-37.878,1.028.6a61.209,61.209,0,0,1,30.558,55.79L490.921,898.1l15.448,81.911a7.531,7.531,0,0,1-5.979,8.781l-22.405,4.269A7.464,7.464,0,0,1,476.586,993.2Z" fill="#2f2e41"/>
      <path id="Path_22010" data-name="Path 22010" d="M488.747,744.049H439.739l-.5-7.039-2.512,7.039h-7.547l-.995-13.952L423.2,744.049H408.6v-.691a36.667,36.667,0,0,1,36.618-36.635h6.91a36.669,36.669,0,0,1,36.619,36.635Z" fill="#2f2e41"/>
      <path id="Path_22011" data-name="Path 22011" d="M1290.33,1231H190.382a1.382,1.382,0,0,1-.977-.41,1.362,1.362,0,0,1-.4-.97,1.391,1.391,0,0,1,1.382-1.39H1290.33a1.383,1.383,0,0,1,1.38,1.39,1.353,1.353,0,0,1-.4.97A1.386,1.386,0,0,1,1290.33,1231Z" fill="#ccc"/>
      <path id="Path_22012" data-name="Path 22012" d="M455.909,954.806a15.463,15.463,0,0,0,17.645,15.332,26.035,26.035,0,0,0,23.868,15.641h0a26.043,26.043,0,0,0,26.034-26.045V937.166c0-5.808-4.707-7.752-10.513-7.752H481.9c-5.806,0-10.513,1.944-10.513,7.752v2.154a15.5,15.5,0,0,0-15.479,15.486Zm4.221,0a11.275,11.275,0,0,1,11.258-11.263v16.191a26.1,26.1,0,0,0,.771,6.3c-.256.017-.511.039-.771.039a11.275,11.275,0,0,1-11.258-11.263Z" fill="#ff639d"/>
      <path id="Path_22013" data-name="Path 22013" d="M468.374,951.085a13.89,13.89,0,0,0-20.822-4.521l-41.39-26.943.158,25.671,39.28,21.65a13.973,13.973,0,0,0,22.774-15.857Z" fill="#ffb8b8"/>
      <path id="Path_22014" data-name="Path 22014" d="M423.558,966.754a6.22,6.22,0,0,1-4.4-1.822l-52.7-52.727a13.944,13.944,0,0,1-3.754-13.04c4.511-19.732,15.5-66.878,20.146-78.486a41.019,41.019,0,0,1,17.769-20.708l.207-.1,16.685,3.084,1.471,51.488-20.156,43.209,42.857,40.474a6.2,6.2,0,0,1,.647,8.335l-13.856,17.887a6.222,6.222,0,0,1-4.524,2.4C423.819,966.75,423.688,966.754,423.558,966.754Z" fill="#2f2e41"/>
      <path id="Path_22015" data-name="Path 22015" d="M497.364,936.538c10.684,0,19.346-1.238,19.346-2.765s-8.662-2.765-19.346-2.765-19.346,1.238-19.346,2.765S486.68,936.538,497.364,936.538Z" fill="#2f2e41"/>
      <path id="Path_25492" data-name="Path 25492" d="M4.344,0A4.249,4.249,0,0,1,8.688,4.147,4.249,4.249,0,0,1,4.344,8.295,4.249,4.249,0,0,1,0,4.147,4.249,4.249,0,0,1,4.344,0Z" transform="translate(426 748)" fill="#2f2e41"/>
      <path id="Path_25519" data-name="Path 25519" d="M4.344,0A4.249,4.249,0,0,1,8.688,4.147,4.249,4.249,0,0,1,4.344,8.295,4.249,4.249,0,0,1,0,4.147,4.249,4.249,0,0,1,4.344,0Z" transform="translate(458 748)" fill="#2f2e41"/>
    </g>
  </g>
  <path id="icons8-box" d="M1,3V24.559H87.234V3ZM4.593,28.152V83.845H83.641V28.152Zm26.05,5.39H57.591a4.491,4.491,0,1,1,0,8.983H30.643a4.491,4.491,0,1,1,0-8.983Z" transform="translate(1202 1144.155)" fill="#ff639d"/>
</svg>
